<svg xmlns="http://www.w3.org/2000/svg" xmlns:xlink="http://www.w3.org/1999/xlink" width="235px"
    height="37px" viewBox="0 0 235 37" version="1.1">
    <defs>
        <polygon id="path-1"
            points="0.0999292022 0.063782565 137.265771 0.063782565 137.265771 6.14800759 0.0999292022 6.14800759" />
        <polygon id="path-3"
            points="0.070750286 0.0174843133 101.389107 0.0174843133 101.389107 19.106576 0.070750286 19.106576" />
        <polygon id="path-5"
            points="0 0.0176955332 101.070816 0.0176955332 101.070816 19.1068107 0 19.1068107" />
    </defs>
    <g id="Symbols" stroke="none" stroke-width="1" fill="none" fill-rule="evenodd">
        <g id="Group-12" transform="translate(1.000000, 1.000000)">
            <g id="Group-3" transform="translate(47.817837, 28.690702)">
                <mask id="mask-2" fill="white">
                    <use xlink:href="#path-1" />
                </mask>
                <g id="Clip-2" />
                <path
                    d="M1.63961141,5.33045518 C2.08179165,5.33045518 2.45944066,5.18519344 2.73699561,4.90841255 C3.02161602,4.61620136 3.19260023,4.16426253 3.19260023,3.56537426 L3.19260023,0.150819065 L2.62347717,0.150819065 L2.62347717,3.57272776 C2.62347717,4.38305927 2.20955878,4.79859225 1.64667687,4.79859225 C1.12642326,4.79859225 0.81259893,4.54363076 0.506664371,4.06902869 L0.0999292022,4.42657752 C0.413635771,4.9519308 0.891378846,5.33045518 1.63961141,5.33045518 L1.63961141,5.33045518 Z M6.59285443,5.25776404 L10.2342764,5.25776404 L10.2342764,4.7332546 L7.15491203,4.7332546 L7.15491203,2.94490769 L9.87782382,2.94490769 L9.87782382,2.42027771 L7.15491203,2.42027771 L7.15491203,0.675449046 L10.1980071,0.675449046 L10.1980071,0.150819065 L6.59285443,0.150819065 L6.59285443,5.25776404 Z M13.4349313,5.25776404 L13.9969889,5.25776404 L13.9969889,3.27340417 L15.4231527,3.27340417 L16.8698063,5.25776404 L17.5604553,5.25776404 L16.0286629,3.17081683 C16.813047,3.02555508 17.3822879,2.52925416 17.3822879,1.68263735 L17.3822879,1.6680509 C17.3822879,1.26698382 17.2402721,0.909434982 16.9982799,0.660983145 C16.6845734,0.340442907 16.1925816,0.150819065 15.5800059,0.150819065 L13.4349313,0.150819065 L13.4349313,5.25776404 Z M13.9969889,2.75600714 L13.9969889,0.682681996 L15.5366711,0.682681996 C16.3423694,0.682681996 16.813047,1.06289407 16.813047,1.6898703 L16.813047,1.70445675 C16.813047,2.36132917 16.2785448,2.75600714 15.5296056,2.75600714 L13.9969889,2.75600714 Z M20.6547749,5.25776404 L21.2025839,5.25776404 L21.2025839,1.12895502 L23.0205276,3.8567416 L23.0489072,3.8567416 L24.8668509,1.12172207 L24.8668509,5.25776404 L25.4290262,5.25776404 L25.4290262,0.150819065 L24.8597854,0.150819065 L23.0418417,2.93755419 L21.223898,0.150819065 L20.6547749,0.150819065 L20.6547749,5.25776404 Z M30.4681146,5.25776404 L31.0373555,5.25776404 L31.0373555,3.22976538 L33.11154,0.150819065 L32.4556295,0.150819065 L30.7599183,2.7044121 L29.078338,0.150819065 L28.3947544,0.150819065 L30.4681146,3.23699833 L30.4681146,5.25776404 Z M36.0772682,5.25776404 L36.6251948,5.25776404 L36.6251948,1.07012702 L39.8471638,5.25776404 L40.2958208,5.25776404 L40.2958208,0.150819065 L39.7478941,0.150819065 L39.7478941,4.24334278 L36.6038807,0.150819065 L36.0772682,0.150819065 L36.0772682,5.25776404 Z M49.6898252,5.33045518 C50.6807564,5.33045518 51.3926019,4.76230695 51.3926019,3.88663779 L51.3926019,3.87205135 C51.3926019,3.09089273 50.880238,2.67535975 49.7678986,2.42666682 C48.6696901,2.18629177 48.4134493,1.91589999 48.4134493,1.43490881 L48.4134493,1.42032236 C48.4134493,0.960306731 48.8265434,0.595645496 49.4753884,0.595645496 C49.9885766,0.595645496 50.4521887,0.763329389 50.9156831,1.14993057 L51.242814,0.704501395 C50.7375157,0.289691707 50.217262,0.0782484652 49.4896371,0.0782484652 C48.5412164,0.0782484652 47.8513917,0.668216096 47.8513917,1.47119411 L47.8513917,1.48566001 C47.8513917,2.32504387 48.3780042,2.7044121 49.5257887,2.95937359 C50.5735969,3.18612658 50.8234788,3.45567452 50.8234788,3.93027659 L50.8234788,3.94474249 C50.8234788,4.44839692 50.3811808,4.8131787 49.7111394,4.8131787 C49.0189595,4.8131787 48.5199023,4.57268311 48.0003552,4.09084809 L47.6519101,4.51445786 C48.2495305,5.06090724 48.8982578,5.33045518 49.6898252,5.33045518 L49.6898252,5.33045518 Z M55.8192324,5.25776404 L56.3884732,5.25776404 L56.3884732,0.682681996 L58.0628702,0.682681996 L58.0628702,0.150819065 L54.144011,0.150819065 L54.144011,0.682681996 L55.8192324,0.682681996 L55.8192324,5.25776404 Z M60.1812139,6.14801965 C60.7220751,6.02373345 60.9711327,5.73887577 60.9711327,5.14806429 L60.9711327,4.49191517 L60.3160465,4.49191517 L60.3160465,5.25776404 L60.5722873,5.25776404 C60.6014912,5.57095078 60.4517033,5.76057462 60.0953685,5.89209376 L60.1812139,6.14801965 Z M68.4913762,5.25776404 L71.8614845,5.25776404 L71.8614845,4.72590111 L69.0534338,4.72590111 L69.0534338,0.150819065 L68.4913762,0.150819065 L68.4913762,5.25776404 Z M77.0000781,5.34504163 C78.5183284,5.34504163 79.5511814,4.11254694 79.5511814,2.7044121 L79.5511814,2.68982565 C79.5511814,1.28157026 78.5326949,0.063782565 77.0142091,0.063782565 C75.495841,0.063782565 74.4631058,1.29603616 74.4631058,2.7044121 L74.4631058,2.718878 C74.4631058,4.12725393 75.4815923,5.34504163 77.0000781,5.34504163 L77.0000781,5.34504163 Z M77.0142091,4.8131787 C75.8741966,4.8131787 75.0473019,3.86493894 75.0473019,2.7044121 L75.0473019,2.68982565 C75.0473019,1.52929881 75.8600656,0.595645496 77.0000781,0.595645496 C78.1406794,0.595645496 78.9678097,1.54388526 78.9678097,2.7044121 L78.9678097,2.718878 C78.9678097,3.87940484 78.1550459,4.8131787 77.0142091,4.8131787 L77.0142091,4.8131787 Z M82.8094198,5.25776404 L83.3572287,5.25776404 L83.3572287,1.07012702 L86.5793155,5.25776404 L87.0278546,5.25776404 L87.0278546,0.150819065 L86.4800457,0.150819065 L86.4800457,4.24334278 L83.3360323,0.150819065 L82.8094198,0.150819065 L82.8094198,5.25776404 Z M90.5060645,5.25776404 L92.2373385,5.25776404 C93.8062246,5.25776404 94.8885358,4.14171983 94.8885358,2.7044121 L94.8885358,2.68982565 C94.8885358,1.25251791 93.8062246,0.150819065 92.2373385,0.150819065 L90.5060645,0.150819065 L90.5060645,5.25776404 Z M92.2373385,0.682681996 C93.4994657,0.682681996 94.3051641,1.57281706 94.3051641,2.7044121 L94.3051641,2.718878 C94.3051641,3.85035249 93.4994657,4.72590111 92.2373385,4.72590111 L91.0682398,4.72590111 L91.0682398,0.682681996 L92.2373385,0.682681996 Z M100.462244,5.34504163 C101.980612,5.34504163 103.013348,4.11254694 103.013348,2.7044121 L103.013348,2.68982565 C103.013348,1.28157026 101.994861,0.063782565 100.476375,0.063782565 C98.9581249,0.063782565 97.9252719,1.29603616 97.9252719,2.7044121 L97.9252719,2.718878 C97.9252719,4.12725393 98.9438762,5.34504163 100.462244,5.34504163 L100.462244,5.34504163 Z M100.476375,4.8131787 C99.3364804,4.8131787 98.509468,3.86493894 98.509468,2.7044121 L98.509468,2.68982565 C98.509468,1.52929881 99.3215252,0.595645496 100.462244,0.595645496 C101.603081,0.595645496 102.429976,1.54388526 102.429976,2.7044121 L102.429976,2.718878 C102.429976,3.87940484 101.617212,4.8131787 100.476375,4.8131787 L100.476375,4.8131787 Z M106.271586,5.25776404 L106.819513,5.25776404 L106.819513,1.07012702 L110.041599,5.25776404 L110.489432,5.25776404 L110.489432,0.150819065 L109.941388,0.150819065 L109.941388,4.24334278 L106.798316,0.150819065 L106.271586,0.150819065 L106.271586,5.25776404 Z M118.743424,5.25776404 L119.298416,5.25776404 L119.298416,0.114533765 L118.886146,0.114533765 L117.667354,0.545617591 L117.802893,1.01202232 L118.743424,0.71257819 L118.743424,5.25776404 Z M124.201965,4.8205322 C123.760492,4.8205322 123.382136,4.63802076 122.976107,4.27323898 L122.648859,4.7187887 C123.069136,5.07549369 123.538989,5.34504163 124.187834,5.34504163 C125.421582,5.34504163 126.262019,4.19982453 126.262019,2.5808492 L126.262019,2.56626275 C126.262019,1.54388526 126.019909,0.97489318 125.64226,0.588291997 C125.321488,0.260639357 124.901211,0.063782565 124.330557,0.063782565 C123.268618,0.063782565 122.53534,0.828787588 122.53534,1.79969059 L122.53534,1.81415649 C122.53534,2.73418774 123.247303,3.39684652 124.27368,3.39684652 C124.915459,3.39684652 125.371888,3.08365978 125.684888,2.5882027 L125.684888,2.68982565 C125.684888,3.79140395 125.164635,4.8205322 124.201965,4.8205322 L124.201965,4.8205322 Z M124.337622,2.90199219 C123.610704,2.90199219 123.111647,2.43474361 123.111647,1.78510414 L123.111647,1.77063824 C123.111647,1.13546467 123.560304,0.573705547 124.309243,0.573705547 C125.058064,0.573705547 125.578435,1.08459292 125.578435,1.73435294 L125.578435,1.74881884 C125.578435,2.33227682 125.10081,2.90199219 124.337622,2.90199219 L124.337622,2.90199219 Z M130.039804,5.25776404 L130.594796,5.25776404 L130.594796,0.114533765 L130.182409,0.114533765 L128.963617,0.545617591 L129.099273,1.01202232 L130.039804,0.71257819 L130.039804,5.25776404 Z M135.59844,5.34504163 C136.525546,5.34504163 137.265771,4.7187887 137.265771,3.8059904 L137.265771,3.79140395 C137.265771,2.85678625 136.489984,2.42751066 135.620578,2.35481951 L137.187698,0.573705547 L137.187698,0.150819065 L134.001998,0.150819065 L134.001998,0.668216096 L136.439701,0.668216096 L134.864574,2.48561536 L134.978799,2.82785445 L135.299688,2.82785445 C136.118811,2.82785445 136.696648,3.17817033 136.696648,3.81322335 L136.696648,3.82768925 C136.696648,4.42657752 136.211722,4.8205322 135.60633,4.8205322 C134.99293,4.8205322 134.529435,4.54363076 134.151786,4.06179574 L133.738692,4.43393102 C134.144721,4.9737502 134.765186,5.34504163 135.59844,5.34504163 L135.59844,5.34504163 Z"
                    id="Fill-1" fill="#1E2A3D" mask="url(#mask-2)" />
            </g>
            <g id="Group-6" transform="translate(131.840607, 0.000000)">
                <mask id="mask-4" fill="white">
                    <use xlink:href="#path-3" />
                </mask>
                <g id="Clip-5" />
                <path
                    d="M9.789872,18.1519794 C5.80982968,18.1519794 2.694932,14.8643418 2.694932,9.56237045 C2.694932,4.25969504 5.80982968,0.971940071 9.789872,0.971940071 C13.2509218,0.971940071 14.9814467,2.96034067 15.5580527,5.29349907 L16.2507104,5.29349907 L15.9619361,1.60829867 C14.8080172,0.945302895 12.6736089,0.0174608445 9.789872,0.0174608445 C4.33862432,0.0174608445 0.070750286,3.9941447 0.070750286,9.56237045 C0.070750286,15.1298921 4.33862432,19.106576 9.789872,19.106576 C12.6736089,19.106576 14.8080172,18.1787339 15.9619361,17.5156208 L16.3657017,13.8304204 L15.6732796,13.8304204 C15.0966736,15.9516549 13.7124187,18.1519794 9.789872,18.1519794 L9.789872,18.1519794 Z M21.2111242,11.6826661 C21.2111242,16.2696581 23.4607595,19.106576 28.5656194,19.106576 C33.2667138,19.106576 36.1795519,16.4551796 36.1795519,11.6826661 L36.1795519,2.16533246 C36.1795519,1.07801939 36.4389893,1.05138222 38.8329527,0.919369786 L38.8329527,0.283011187 L32.2862244,0.283011187 L32.2862244,0.919369786 C34.7376835,1.05138222 34.9972387,1.07801939 34.9972387,2.16533246 L34.9972387,11.4179372 C34.9972387,15.4739459 33.035553,17.8072216 29.2865536,17.8072216 C25.4508395,17.8072216 23.6627012,15.5007004 23.6627012,11.4179372 L23.6627012,2.16533246 C23.6627012,1.07801939 23.9221385,1.05138222 26.1425547,0.919369786 L26.1425547,0.283011187 L18.7305638,0.283011187 L18.7305638,0.919369786 C20.9516869,1.05138222 21.2111242,1.07801939 21.2111242,2.16533246 L21.2111242,11.6826661 Z M41.6015805,0.283011187 L41.6015805,0.919369786 C43.8219966,1.05138222 44.0822587,1.07801939 44.0822587,2.16533246 L44.0822587,16.9587044 C44.0822587,18.0460174 43.8219966,18.0726546 41.6015805,18.2053711 L41.6015805,18.8409083 L49.0135713,18.8409083 L49.0135713,18.2053711 C46.7931552,18.0726546 46.5337178,18.0460174 46.5337178,16.9587044 L46.5337178,10.7815786 L48.5521923,10.7815786 C49.6193964,11.4446917 50.5713736,12.7172916 51.3783157,13.8571749 L53.0804462,16.243021 C53.5703375,17.0388506 54.4930956,18.1519794 55.2148545,18.8409083 L59.4828464,18.8409083 L59.4828464,18.2053711 C58.3296344,18.0726546 57.2048168,17.9131836 56.1377304,16.5611416 L53.6278331,13.273504 C52.936118,12.3724164 52.0416364,11.3911827 50.7733153,10.6756166 C55.1565341,10.1185828 56.7142186,7.653412 56.7142186,5.32025359 C56.7142186,2.40330688 54.320373,0.283011187 49.9939429,0.283011187 L41.6015805,0.283011187 Z M49.3882356,1.18409872 C53.0513449,1.18409872 54.0900369,3.46386543 54.0900369,5.58498253 C54.0900369,7.91814093 52.8785045,9.82709938 48.638907,9.82709938 L46.5337178,9.82709938 L46.5337178,1.18409872 L49.3882356,1.18409872 Z M59.8583354,4.60457019 L60.5500505,4.60457019 C61.1266565,2.29722755 61.9059111,1.18409872 64.1839407,1.18409872 L66.2315164,1.18409872 L66.2315164,16.9587044 C66.2315164,18.0460174 65.9720791,18.0726546 63.751663,18.2053711 L63.751663,18.8409083 L71.1636538,18.8409083 L71.1636538,18.2053711 C68.9432376,18.0726546 68.6829756,18.0460174 68.6829756,16.9587044 L68.6829756,1.18409872 L70.731376,1.18409872 C73.0094056,1.18409872 73.7878355,2.29722755 74.3652662,4.60457019 L75.0569813,4.60457019 L74.9126531,0.283011187 L60.0019567,0.283011187 L59.8583354,4.60457019 Z M80.3355064,16.9587044 C80.3355064,18.0460174 80.0759512,18.0726546 77.8548282,18.2053711 L77.8548282,18.8409083 L85.266819,18.8409083 L85.266819,18.2053711 C83.0464029,18.0726546 82.7868477,18.0460174 82.7868477,16.9587044 L82.7868477,2.16533246 C82.7868477,1.07801939 83.0464029,1.05138222 85.266819,0.919369786 L85.266819,0.283011187 L77.8548282,0.283011187 L77.8548282,0.919369786 C80.0759512,1.05138222 80.3355064,1.07801939 80.3355064,2.16533246 L80.3355064,16.9587044 Z M100.840954,5.55822801 L100.553004,1.21073589 C98.9661009,0.41502362 97.0052399,0.0174608445 95.2462028,0.0174608445 C91.2945549,0.0174608445 89.0450375,2.08518625 89.0450375,4.73646528 C89.0450375,10.5427828 98.9661009,9.50897875 98.9661009,14.4401418 C98.9661009,16.5878961 97.4091233,18.1252249 94.8424372,18.1252249 C92.6788098,18.1252249 90.1988385,17.4096588 89.4195839,13.1674246 L88.7278688,13.1674246 L89.0165253,17.7812885 C90.6027219,18.5761794 92.8231381,19.106576 94.9000507,19.106576 C98.7641592,19.106576 101.389166,17.0914209 101.389166,13.8571749 C101.389166,7.81206161 91.4681022,8.55449953 91.4681022,3.96821159 C91.4681022,2.03249862 93.0826932,0.99869459 95.3038163,0.99869459 C97.7552754,0.99869459 99.3698664,2.45681592 100.149239,5.55822801 L100.840954,5.55822801 Z"
                    id="Fill-4" fill="#1E2A3D" mask="url(#mask-4)" />
            </g>
            <path
                d="M118.381428,5.05701888 C118.130328,5.28249097 117.944596,5.57404364 117.822134,5.93238112 C117.700371,6.2907186 117.619273,6.69612235 117.578724,7.1463623 C117.538175,7.59824546 117.51091,8.04930702 117.497626,8.50025121 C117.741036,8.42008596 118.042938,8.30071838 118.401702,8.1420311 C118.760583,7.98240484 119.113171,7.79073595 119.458768,7.56444226 C119.804249,7.33885279 120.09916,7.08356815 120.34257,6.79823621 C120.586678,6.51302164 120.708441,6.20503686 120.708441,5.87263864 C120.708441,5.54188364 120.593669,5.26605886 120.362844,5.04680749 C120.132718,4.82837773 119.820678,4.71839994 119.42824,4.71839994 C118.981271,4.71839994 118.631828,4.83154679 118.381428,5.05701888 M113.452997,10.3508595 C113.113692,10.6163555 112.846163,10.9047391 112.649594,11.2167146 C112.452909,11.52869 112.321125,11.8634357 112.253194,12.2216558 C112.18538,12.5799932 112.151822,12.9579319 112.151822,13.3555891 C112.151822,13.5944416 112.16196,13.8970273 112.182234,14.2615855 C112.202508,14.6261437 112.239911,15.011242 112.293743,15.4159416 C112.348391,15.8206411 112.429489,16.2283923 112.537968,16.6393125 C112.646448,17.0510544 112.788369,17.4226549 112.964663,17.7543489 C113.140957,18.0859255 113.360946,18.3547079 113.625446,18.5597573 C113.889829,18.7656282 114.205015,18.8685637 114.57077,18.8685637 C114.936758,18.8685637 115.261964,18.7955581 115.545923,18.6494297 C115.83058,18.5038881 116.084942,18.3279471 116.308077,18.1220761 C116.531912,17.9169095 116.724635,17.7009445 116.887646,17.4754724 C117.049841,17.249883 117.185587,17.0510544 117.294067,16.878165 C116.982027,16.3879012 116.72848,15.8834352 116.531912,15.3655889 C116.335343,14.8485641 116.183168,14.3440982 116.074805,13.8537169 C115.965626,13.3626314 115.89152,12.9013585 115.850971,12.4700154 C115.810422,12.0393767 115.790031,11.6779875 115.790031,11.3856132 C115.790031,11.0807975 115.800168,10.7287981 115.820443,10.3311409 C115.840717,9.93277952 115.871245,9.56188321 115.911794,9.21610456 L114.753356,9.65460728 C114.225289,9.85343588 113.791487,10.0852461 113.452997,10.3508595 M116.267412,7.55505248 C116.423432,7.04424844 116.640391,6.55621463 116.917941,6.09189001 C117.195724,5.62744801 117.534214,5.23612893 117.934458,4.91793276 C118.333888,4.59891499 118.811269,4.4402277 119.367417,4.4402277 C119.8956,4.4402277 120.298875,4.57931382 120.576541,4.85819029 C120.854324,5.13636252 120.993099,5.4883619 120.993099,5.91277995 C120.993099,6.2843805 120.864461,6.62628586 120.607069,6.9374397 C120.349561,7.24929776 120.038337,7.52512255 119.672465,7.76327085 C119.306594,8.00212338 118.923594,8.2079943 118.523465,8.38088363 C118.124036,8.55295135 117.781585,8.68581673 117.497626,8.77842344 C117.524193,9.50847883 117.568587,10.3075491 117.629527,11.1766906 C117.690233,12.0457148 117.822134,12.9376265 118.025693,13.8537169 L118.310467,15.1070178 L118.351016,15.1070178 C118.689622,14.4304841 119.004808,13.8003125 119.296573,13.216503 C119.587522,12.6326934 119.892454,12.1250584 120.210669,11.6944196 C120.529001,11.2630766 120.874482,10.9244577 121.247461,10.679267 C121.619508,10.4340764 122.057156,10.3107182 122.557957,10.3107182 C123.072858,10.3107182 123.49629,10.4435835 123.828604,10.7090796 C124.160219,10.974693 124.326376,11.31965 124.326376,11.7439507 C124.326376,12.0095641 124.258445,12.2311629 124.123515,12.410273 C123.98777,12.5895004 123.78421,12.6790554 123.513535,12.6790554 C123.0259,12.6790554 122.781792,12.4535833 122.781792,12.0025218 C122.781792,11.8830368 122.792045,11.7871437 122.812203,11.7141382 C122.832478,11.6410152 122.852752,11.5782211 122.873143,11.5246993 C122.893417,11.4721166 122.910546,11.4155432 122.923712,11.3558007 C122.937112,11.2960582 122.943987,11.2065032 122.943987,11.0870182 C122.943987,10.9015701 122.88631,10.7719911 122.771654,10.6988682 C122.6563,10.6265669 122.504125,10.589712 122.314548,10.589712 C122.02989,10.589712 121.687323,10.72246 121.287893,10.9872518 C120.887881,11.2528652 120.478198,11.7376126 120.058611,12.4402029 C119.908767,12.6924359 119.759855,12.9611009 119.610826,13.2463155 C119.461798,13.5316474 119.316731,13.813693 119.173994,14.0918652 C119.032073,14.370859 118.896328,14.6363551 118.767574,14.8887054 C118.63882,15.1401168 118.526495,15.3592508 118.43223,15.5446989 C118.485946,15.8370732 118.584988,16.1851993 118.727025,16.5897814 C118.869062,16.9944809 119.021936,17.342607 119.184131,17.6348639 C119.252062,17.7543489 119.33316,17.8872143 119.42824,18.0325211 C119.522737,18.1786496 119.638092,18.311515 119.773837,18.4308825 C119.908767,18.5503675 120.071895,18.653303 120.261472,18.7388673 C120.451049,18.8253707 120.674884,18.8685637 120.932275,18.8685637 C121.284048,18.8685637 121.603079,18.7758396 121.887853,18.5896872 C122.171811,18.404239 122.426057,18.1692598 122.650008,17.8832236 C122.873143,17.5980091 123.066565,17.2828646 123.228877,16.9379075 C123.391772,16.5929505 123.530663,16.2613739 123.645318,15.9431777 C123.760789,15.6249815 123.848995,15.3428186 123.909702,15.0969238 C123.970641,14.8517331 124.008044,14.6827171 124.021327,14.589993 L124.306101,14.6497355 C124.278719,14.7290791 124.235024,14.8980952 124.174201,15.1565489 C124.113378,15.4159416 124.028319,15.7113675 123.919839,16.0421225 C123.811592,16.3745207 123.672584,16.7226468 123.503398,17.087205 C123.334095,17.4525848 123.123427,17.7842788 122.873143,18.0828738 C122.622626,18.3806472 122.32084,18.6297111 121.968951,18.8285397 C121.616362,19.0280725 121.209942,19.1271347 120.748874,19.1271347 C120.369835,19.1271347 120.021092,19.0744346 119.702877,18.9683301 C119.383846,18.8623429 119.088935,18.7160971 118.81826,18.5299447 C118.547585,18.3444966 118.30033,18.1291185 118.076496,17.8832236 C117.853361,17.638033 117.646538,17.3827483 117.456378,17.1170176 L117.192694,17.4950736 C116.83999,17.9995395 116.436715,18.3979009 115.982755,18.6893362 C115.528794,18.9810063 114.956916,19.1271347 114.265838,19.1271347 C113.872701,19.1271347 113.446006,19.0540118 112.984938,18.908705 C112.524685,18.7625765 112.097175,18.5267757 111.704853,18.2014198 C111.311716,17.8770029 110.983247,17.4557539 110.718864,16.9379075 C110.454364,16.4208828 110.322581,15.7836688 110.322581,15.0276741 C110.322581,14.3111166 110.441081,13.651015 110.678315,13.0476043 C110.915433,12.4440762 111.233648,11.9027554 111.633893,11.4257545 C112.033322,10.9479321 112.493458,10.5370119 113.015349,10.1912332 C113.537241,9.84627617 114.082436,9.57444204 114.651984,9.37561345 L115.952343,8.91750955 C116.006991,8.51996974 116.111509,8.06573914 116.267412,7.55505248"
                id="Fill-7" fill="#1E2A3D" />
            <g id="Group-11">
                <mask id="mask-6" fill="white">
                    <use xlink:href="#path-5" />
                </mask>
                <g id="Clip-10" />
                <path
                    d="M15.1720964,16.9589391 C15.1720964,18.0462521 14.9125107,18.0720679 12.6911262,18.2049017 L12.6911262,18.841143 L20.1048144,18.841143 L20.1048144,18.2049017 C17.8834299,18.0720679 17.6238442,18.0462521 17.6238442,16.9589391 L17.6238442,2.16474574 C17.6238442,1.07825408 17.8834299,1.05149956 20.1048144,0.918783064 L20.1048144,0.282424465 L12.6911262,0.282424465 L12.6911262,0.918783064 C14.9125107,1.05149956 15.1720964,1.07825408 15.1720964,2.16474574 L15.1720964,8.92554247 L4.93195207,8.92554247 L4.93195207,2.16474574 C4.93195207,1.07825408 5.1922448,1.05149956 7.41292233,0.918783064 L7.41292233,0.282424465 L-5.89164159e-05,0.282424465 L-5.89164159e-05,0.918783064 C2.22061862,1.05149956 2.48020435,1.07825408 2.48020435,2.16474574 L2.48020435,16.9589391 C2.48020435,18.0462521 2.22061862,18.0720679 -5.89164159e-05,18.2049017 L-5.89164159e-05,18.841143 L7.41292233,18.841143 L7.41292233,18.2049017 C5.1922448,18.0720679 4.93195207,18.0462521 4.93195207,16.9589391 L4.93195207,9.8800217 L15.1720964,9.8800217 L15.1720964,16.9589391 Z M32.4787935,0.149707966 L31.0943756,0.149707966 L24.9508074,16.6942101 C24.5752742,17.7807018 24.1714611,17.9400555 22.5849599,18.2049017 L22.5849599,18.841143 L28.5851255,18.841143 L28.5851255,18.2049017 C26.2201027,17.9400555 25.8445695,17.6219348 26.4220682,16.031097 L27.6329184,12.6900677 L34.9022614,12.6900677 L36.401802,16.5881308 C36.8633532,17.7539473 36.5170425,17.9661059 34.2095222,18.2049017 L34.2095222,18.841143 L41.5941057,18.841143 L41.5941057,18.2049017 C39.8633771,18.0462521 39.4878438,17.6478679 39.142358,16.7467804 L32.4787935,0.149707966 Z M31.1235981,3.03990016 L31.1812184,3.03990016 L34.5267281,11.7364099 L27.979229,11.7364099 L31.1235981,3.03990016 Z M58.237404,18.9739768 L59.6794422,18.9739768 L65.2464543,2.43029609 C65.592765,1.34298302 66.0249758,1.18433341 67.611477,0.918783064 L67.611477,0.282424465 L61.6121363,0.282424465 L61.6121363,0.918783064 C63.977159,1.18433341 64.3234697,1.47581686 63.7751935,3.09329186 L59.6502196,15.6595847 L59.5925994,15.6595847 L55.5836908,2.53637541 C55.2082754,1.34298302 55.4677433,1.15757889 57.7759706,0.918783064 L57.7759706,0.282424465 L50.4197848,0.282424465 L50.4197848,0.918783064 C52.1222335,1.07825408 52.5836669,1.44906234 52.8723573,2.37678705 L53.4199265,4.10045871 L49.1222096,15.6595847 L49.0645894,15.6595847 L44.3914571,2.53637541 C43.9591285,1.36973754 44.2762166,1.15757889 46.5836191,0.918783064 L46.5836191,0.282424465 L39.1999782,0.282424465 L39.1999782,0.918783064 C40.9307069,1.07825408 41.33452,1.47581686 41.651726,2.37678705 L47.7377917,18.9739768 L49.1222096,18.9739768 L53.9973074,5.87670067 L58.237404,18.9739768 Z M84.369898,0.282424465 L69.8612593,0.282424465 L69.8612593,0.918783064 C72.0826438,1.05149956 72.3422295,1.07825408 72.3422295,2.16474574 L72.3422295,16.9589391 C72.3422295,18.0462521 72.0826438,18.0720679 69.8612593,18.2049017 L69.8612593,18.841143 L84.5434657,18.841143 L84.8313313,14.5197013 L84.1395348,14.5197013 C83.4761359,17.1443432 82.1776181,17.9400555 79.8994382,17.9400555 L74.7939773,17.9400555 L74.7939773,9.8800217 L77.6780536,9.8800217 C79.5239049,9.8800217 80.562837,10.410301 80.8224227,12.5314181 L81.5143371,12.5314181 L81.5143371,6.2741461 L80.8224227,6.2741461 C80.562837,8.3952632 79.5239049,8.92554247 77.6780536,8.92554247 L74.7939773,8.92554247 L74.7939773,1.18433341 L80.1298014,1.18433341 C82.4088061,1.18433341 83.2450658,2.29746224 83.8224466,4.60398347 L84.5142432,4.60398347 L84.369898,0.282424465 Z M100.523365,5.5584627 L100.234675,1.21026652 C98.6482913,0.415258309 96.6871995,0.0176955332 94.9272483,0.0176955332 C90.9758421,0.0176955332 88.7260599,2.08542094 88.7260599,4.73681731 C88.7260599,10.5430175 98.6482913,9.50921344 98.6482913,14.4403765 C98.6482913,16.5881308 97.0910126,18.1254596 94.5233174,18.1254596 C92.3602601,18.1254596 89.8792898,17.4098935 89.1006505,13.1676593 L88.4080291,13.1676593 L88.6968374,17.7807018 C90.2832208,18.5764141 92.5046053,19.1068107 94.5809376,19.1068107 C98.4463258,19.1068107 101.070816,17.0916556 101.070816,13.8567056 C101.070816,7.81229629 91.1485851,8.55473422 91.1485851,3.96774221 C91.1485851,2.03273331 92.764191,0.998107868 94.9847507,0.998107868 C97.4366163,0.998107868 99.0521044,2.4570506 99.8307438,5.5584627 L100.523365,5.5584627 Z"
                    id="Fill-9" fill="#1E2A3D" mask="url(#mask-6)" />
            </g>
        </g>
    </g>
</svg>